<svg width="161" height="169" viewBox="0 0 161 169" fill="none" xmlns="http://www.w3.org/2000/svg">
<path d="M28.5537 29.7739H64.1641V39.0293H38.5146V56.876H60.9683V66.1313H38.5146V89H28.5537V29.7739ZM77.2627 39.0293H66.3887L69.1694 29.7739H87.1821V89H77.2627V39.0293Z" fill="#FF0000"/>
<path d="M76 89V84.5V79.5L17 127.084V132.538V137L76 89Z" fill="white"/>
<path d="M88.5 80V70.5L145 22V32.9076L88.5 80Z" fill="white"/>
<path d="M76 89V84.5V79.5L17 127.084V132.538V137L76 89Z" stroke="white"/>
<path d="M88.5 80V70.5L145 22V32.9076L88.5 80Z" stroke="white"/>
<path d="M76 106V101.5V97L17.5 145.5V149H24L76 106Z" fill="white"/>
<path d="M89 99.5V88.5L145 41V51.9076L89 99.5Z" fill="white"/>
<path d="M76 106V101.5V97L17.5 145.5V149H24L76 106Z" stroke="white"/>
<path d="M89 99.5V88.5L145 41V51.9076L89 99.5Z" stroke="white"/>
<path d="M78 89V143" stroke="#FF0000"/>
<path d="M77.2314 82.3804H98.9814C101.219 82.3804 103.357 82.5361 105.396 82.8477C107.463 83.1592 109.375 83.7114 111.131 84.5044C112.887 85.2974 114.487 86.4019 115.931 87.8179C117.375 89.2339 118.607 91.0464 119.627 93.2554C120.646 95.4644 121.425 98.1265 121.963 101.242C122.53 104.357 122.813 108.01 122.813 112.202C122.813 116.535 122.558 120.315 122.048 123.544C121.539 126.744 120.802 129.491 119.839 131.785C118.876 134.051 117.701 135.92 116.313 137.393C114.926 138.837 113.34 139.984 111.556 140.833C109.8 141.655 107.86 142.221 105.736 142.533C103.64 142.844 101.389 143 98.9814 143H77.2314V82.3804ZM96.2202 133.527C97.6646 133.527 99.0664 133.499 100.426 133.442C101.785 133.357 103.045 133.102 104.207 132.677C105.396 132.252 106.472 131.615 107.435 130.766C108.426 129.888 109.262 128.656 109.941 127.07C110.649 125.484 111.188 123.487 111.556 121.08C111.952 118.645 112.15 115.657 112.15 112.117C112.15 108.832 111.966 106.056 111.598 103.791C111.23 101.497 110.706 99.5991 110.026 98.0981C109.347 96.5972 108.525 95.436 107.562 94.6147C106.628 93.7651 105.566 93.1421 104.376 92.7456C103.187 92.3208 101.898 92.0659 100.511 91.981C99.1514 91.896 97.7212 91.8535 96.2202 91.8535H87.4268V133.527H96.2202Z" fill="#FF0000"/>
<path d="M111.615 145.162C112.295 144.455 112.869 143.836 113.338 143.305C113.811 142.773 114.193 142.305 114.486 141.898C114.779 141.488 114.992 141.127 115.125 140.814C115.258 140.498 115.324 140.203 115.324 139.93C115.324 139.738 115.299 139.57 115.248 139.426C115.201 139.281 115.117 139.162 114.996 139.068C114.875 138.971 114.709 138.898 114.498 138.852C114.291 138.801 114.029 138.775 113.713 138.775C113.49 138.775 113.27 138.787 113.051 138.811C112.836 138.83 112.641 138.852 112.465 138.875C112.258 138.902 112.059 138.934 111.867 138.969V137.891C112.059 137.812 112.275 137.74 112.518 137.674C112.725 137.619 112.969 137.57 113.25 137.527C113.535 137.48 113.85 137.457 114.193 137.457C114.67 137.457 115.072 137.508 115.4 137.609C115.732 137.707 116 137.854 116.203 138.049C116.41 138.244 116.559 138.49 116.648 138.787C116.738 139.084 116.783 139.428 116.783 139.818C116.783 140.119 116.732 140.439 116.631 140.779C116.529 141.119 116.357 141.488 116.115 141.887C115.877 142.281 115.559 142.711 115.16 143.176C114.766 143.637 114.275 144.139 113.689 144.682V144.693H116.783V146H111.615V145.162ZM121.181 146.182C120.814 146.182 120.48 146.15 120.179 146.088C119.882 146.029 119.619 145.932 119.388 145.795C119.158 145.658 118.959 145.479 118.791 145.256C118.623 145.029 118.484 144.752 118.375 144.424C118.269 144.096 118.189 143.711 118.134 143.27C118.084 142.824 118.058 142.314 118.058 141.74C118.058 140.877 118.117 140.168 118.234 139.613C118.355 139.059 118.543 138.623 118.796 138.307C119.05 137.986 119.373 137.766 119.763 137.645C120.158 137.52 120.63 137.457 121.181 137.457C121.728 137.457 122.199 137.52 122.593 137.645C122.988 137.766 123.31 137.986 123.56 138.307C123.814 138.623 124 139.059 124.117 139.613C124.238 140.168 124.298 140.877 124.298 141.74C124.298 142.314 124.271 142.824 124.216 143.27C124.166 143.711 124.086 144.096 123.976 144.424C123.871 144.752 123.734 145.029 123.566 145.256C123.398 145.479 123.199 145.658 122.968 145.795C122.738 145.932 122.474 146.029 122.177 146.088C121.88 146.15 121.548 146.182 121.181 146.182ZM121.181 144.887C121.513 144.887 121.785 144.824 121.996 144.699C122.207 144.57 122.371 144.377 122.488 144.119C122.609 143.861 122.691 143.535 122.734 143.141C122.777 142.746 122.798 142.279 122.798 141.74C122.798 141.201 122.777 140.744 122.734 140.369C122.691 139.99 122.609 139.684 122.488 139.449C122.371 139.211 122.207 139.039 121.996 138.934C121.785 138.828 121.513 138.775 121.181 138.775C120.849 138.775 120.578 138.828 120.367 138.934C120.16 139.039 119.996 139.209 119.875 139.443C119.757 139.678 119.677 139.984 119.634 140.363C119.591 140.738 119.57 141.197 119.57 141.74C119.57 142.279 119.591 142.748 119.634 143.146C119.677 143.541 119.757 143.867 119.875 144.125C119.996 144.383 120.16 144.574 120.367 144.699C120.578 144.824 120.849 144.887 121.181 144.887ZM125.228 145.162C125.907 144.455 126.482 143.836 126.95 143.305C127.423 142.773 127.806 142.305 128.099 141.898C128.392 141.488 128.605 141.127 128.738 140.814C128.87 140.498 128.937 140.203 128.937 139.93C128.937 139.738 128.911 139.57 128.861 139.426C128.814 139.281 128.73 139.162 128.609 139.068C128.488 138.971 128.321 138.898 128.111 138.852C127.904 138.801 127.642 138.775 127.325 138.775C127.103 138.775 126.882 138.787 126.663 138.811C126.448 138.83 126.253 138.852 126.077 138.875C125.87 138.902 125.671 138.934 125.48 138.969V137.891C125.671 137.812 125.888 137.74 126.13 137.674C126.337 137.619 126.581 137.57 126.863 137.527C127.148 137.48 127.462 137.457 127.806 137.457C128.282 137.457 128.685 137.508 129.013 137.609C129.345 137.707 129.613 137.854 129.816 138.049C130.023 138.244 130.171 138.49 130.261 138.787C130.351 139.084 130.396 139.428 130.396 139.818C130.396 140.119 130.345 140.439 130.243 140.779C130.142 141.119 129.97 141.488 129.728 141.887C129.489 142.281 129.171 142.711 128.773 143.176C128.378 143.637 127.888 144.139 127.302 144.682V144.693H130.396V146H125.228V145.162ZM131.524 144.752C131.72 144.779 131.919 144.803 132.122 144.822C132.298 144.842 132.489 144.857 132.696 144.869C132.903 144.881 133.104 144.887 133.3 144.887C133.573 144.887 133.819 144.873 134.038 144.846C134.257 144.814 134.442 144.756 134.595 144.67C134.747 144.584 134.864 144.463 134.946 144.307C135.028 144.146 135.071 143.936 135.075 143.674C135.079 143.361 135.042 143.119 134.964 142.947C134.886 142.771 134.751 142.643 134.559 142.561C134.368 142.475 134.11 142.42 133.786 142.396C133.466 142.369 133.063 142.35 132.579 142.338L132.591 141.09C133.087 141.09 133.485 141.068 133.786 141.025C134.091 140.982 134.323 140.912 134.483 140.814C134.647 140.713 134.755 140.58 134.805 140.416C134.856 140.252 134.88 140.049 134.876 139.807C134.872 139.607 134.841 139.439 134.782 139.303C134.727 139.166 134.636 139.057 134.507 138.975C134.378 138.889 134.21 138.826 134.003 138.787C133.796 138.748 133.542 138.729 133.241 138.729C133.069 138.729 132.888 138.738 132.696 138.758C132.505 138.777 132.327 138.797 132.163 138.816C131.971 138.84 131.782 138.867 131.595 138.898V137.891C131.802 137.812 132.026 137.74 132.268 137.674C132.479 137.619 132.721 137.57 132.995 137.527C133.268 137.48 133.563 137.457 133.88 137.457C134.72 137.457 135.337 137.646 135.731 138.025C136.126 138.4 136.323 138.971 136.323 139.736C136.323 139.986 136.3 140.205 136.253 140.393C136.206 140.58 136.143 140.742 136.065 140.879C135.987 141.016 135.897 141.129 135.796 141.219C135.698 141.309 135.595 141.383 135.485 141.441C135.38 141.496 135.274 141.537 135.169 141.564C135.067 141.588 134.973 141.602 134.888 141.605V141.617C134.958 141.625 135.048 141.639 135.157 141.658C135.266 141.674 135.382 141.707 135.503 141.758C135.628 141.805 135.751 141.873 135.872 141.963C135.997 142.053 136.108 142.174 136.206 142.326C136.304 142.475 136.384 142.658 136.446 142.877C136.509 143.096 136.54 143.357 136.54 143.662C136.54 144.146 136.475 144.551 136.346 144.875C136.221 145.199 136.04 145.459 135.802 145.654C135.567 145.85 135.282 145.988 134.946 146.07C134.614 146.152 134.241 146.193 133.827 146.193C133.534 146.193 133.249 146.174 132.971 146.135C132.694 146.096 132.448 146.051 132.233 146C131.983 145.945 131.747 145.881 131.524 145.807V144.752Z" fill="white"/>
<g filter="url(#filter0_d_101_4)">
<path d="M34 19.5H145.5V142C145.5 146.694 141.694 150.5 137 150.5H15.5V38C15.5 27.7827 23.7827 19.5 34 19.5Z" stroke="white" stroke-width="3" shape-rendering="crispEdges"/>
</g>
<defs>
<filter id="filter0_d_101_4" x="10" y="18" width="141" height="142" filterUnits="userSpaceOnUse" color-interpolation-filters="sRGB">
<feFlood flood-opacity="0" result="BackgroundImageFix"/>
<feColorMatrix in="SourceAlpha" type="matrix" values="0 0 0 0 0 0 0 0 0 0 0 0 0 0 0 0 0 0 127 0" result="hardAlpha"/>
<feOffset dy="4"/>
<feGaussianBlur stdDeviation="2"/>
<feComposite in2="hardAlpha" operator="out"/>
<feColorMatrix type="matrix" values="0 0 0 0 0 0 0 0 0 0 0 0 0 0 0 0 0 0 0.25 0"/>
<feBlend mode="normal" in2="BackgroundImageFix" result="effect1_dropShadow_101_4"/>
<feBlend mode="normal" in="SourceGraphic" in2="effect1_dropShadow_101_4" result="shape"/>
</filter>
</defs>
</svg>
