<svg width="128" height="128" viewBox="0 0 128 128" fill="none" xmlns="http://www.w3.org/2000/svg">
<g clip-path="url(#clip0_101_4)">
<path d="M11.5537 8.77393H47.1641V18.0293H21.5146V35.876H43.9683V45.1313H21.5146V68H11.5537V8.77393ZM60.2627 18.0293H49.3887L52.1694 8.77393H70.1821V68H60.2627V18.0293Z" fill="#FF0000"/>
<path d="M59 68V63.5V58.5L0 106.084V111.538V116L59 68Z" fill="white"/>
<path d="M71.5 59V49.5L128 1V11.9076L71.5 59Z" fill="white"/>
<path d="M59 68V63.5V58.5L0 106.084V111.538V116L59 68Z" stroke="white"/>
<path d="M71.5 59V49.5L128 1V11.9076L71.5 59Z" stroke="white"/>
<path d="M59 85V80.5V76L0.5 124.5V128H7L59 85Z" fill="white"/>
<path d="M72 78.5V67.5L128 20V30.9076L72 78.5Z" fill="white"/>
<path d="M59 85V80.5V76L0.5 124.5V128H7L59 85Z" stroke="white"/>
<path d="M72 78.5V67.5L128 20V30.9076L72 78.5Z" stroke="white"/>
<path d="M61 68V122" stroke="#FF0000"/>
<path d="M60.2314 61.3804H81.9814C84.2188 61.3804 86.3569 61.5361 88.396 61.8477C90.4634 62.1592 92.375 62.7114 94.1309 63.5044C95.8867 64.2974 97.4868 65.4019 98.9312 66.8179C100.375 68.2339 101.607 70.0464 102.627 72.2554C103.646 74.4644 104.425 77.1265 104.963 80.2417C105.53 83.3569 105.813 87.0103 105.813 91.2017C105.813 95.5347 105.558 99.3154 105.048 102.544C104.539 105.744 103.802 108.491 102.839 110.785C101.876 113.051 100.701 114.92 99.3135 116.393C97.9258 117.837 96.3398 118.984 94.5557 119.833C92.7998 120.655 90.8599 121.221 88.7358 121.533C86.6401 121.844 84.3887 122 81.9814 122H60.2314V61.3804ZM79.2202 112.527C80.6646 112.527 82.0664 112.499 83.4258 112.442C84.7852 112.357 86.0454 112.102 87.2065 111.677C88.396 111.252 89.4722 110.615 90.4351 109.766C91.4263 108.888 92.2617 107.656 92.9414 106.07C93.6494 104.484 94.1875 102.487 94.5557 100.08C94.9521 97.6445 95.1504 94.6567 95.1504 91.1167C95.1504 87.8315 94.9663 85.0562 94.5981 82.7905C94.23 80.4966 93.7061 78.5991 93.0264 77.0981C92.3467 75.5972 91.5254 74.436 90.5625 73.6147C89.6279 72.7651 88.5659 72.1421 87.3765 71.7456C86.187 71.3208 84.8984 71.0659 83.5107 70.981C82.1514 70.896 80.7212 70.8535 79.2202 70.8535H70.4268V112.527H79.2202Z" fill="#FF0000"/>
<path d="M94.6152 124.162C95.2949 123.455 95.8691 122.836 96.3379 122.305C96.8105 121.773 97.1934 121.305 97.4863 120.898C97.7793 120.488 97.9922 120.127 98.125 119.814C98.2578 119.498 98.3242 119.203 98.3242 118.93C98.3242 118.738 98.2988 118.57 98.248 118.426C98.2012 118.281 98.1172 118.162 97.9961 118.068C97.875 117.971 97.709 117.898 97.498 117.852C97.291 117.801 97.0293 117.775 96.7129 117.775C96.4902 117.775 96.2695 117.787 96.0508 117.811C95.8359 117.83 95.6406 117.852 95.4648 117.875C95.2578 117.902 95.0586 117.934 94.8672 117.969V116.891C95.0586 116.812 95.2754 116.74 95.5176 116.674C95.7246 116.619 95.9688 116.57 96.25 116.527C96.5352 116.48 96.8496 116.457 97.1934 116.457C97.6699 116.457 98.0723 116.508 98.4004 116.609C98.7324 116.707 99 116.854 99.2031 117.049C99.4102 117.244 99.5586 117.49 99.6484 117.787C99.7383 118.084 99.7832 118.428 99.7832 118.818C99.7832 119.119 99.7324 119.439 99.6309 119.779C99.5293 120.119 99.3574 120.488 99.1152 120.887C98.877 121.281 98.5586 121.711 98.1602 122.176C97.7656 122.637 97.2754 123.139 96.6895 123.682V123.693H99.7832V125H94.6152V124.162ZM104.181 125.182C103.814 125.182 103.48 125.15 103.179 125.088C102.882 125.029 102.619 124.932 102.388 124.795C102.158 124.658 101.959 124.479 101.791 124.256C101.623 124.029 101.484 123.752 101.375 123.424C101.269 123.096 101.189 122.711 101.134 122.27C101.084 121.824 101.058 121.314 101.058 120.74C101.058 119.877 101.117 119.168 101.234 118.613C101.355 118.059 101.543 117.623 101.796 117.307C102.05 116.986 102.373 116.766 102.763 116.645C103.158 116.52 103.63 116.457 104.181 116.457C104.728 116.457 105.199 116.52 105.593 116.645C105.988 116.766 106.31 116.986 106.56 117.307C106.814 117.623 107 118.059 107.117 118.613C107.238 119.168 107.298 119.877 107.298 120.74C107.298 121.314 107.271 121.824 107.216 122.27C107.166 122.711 107.086 123.096 106.976 123.424C106.871 123.752 106.734 124.029 106.566 124.256C106.398 124.479 106.199 124.658 105.968 124.795C105.738 124.932 105.474 125.029 105.177 125.088C104.88 125.15 104.548 125.182 104.181 125.182ZM104.181 123.887C104.513 123.887 104.785 123.824 104.996 123.699C105.207 123.57 105.371 123.377 105.488 123.119C105.609 122.861 105.691 122.535 105.734 122.141C105.777 121.746 105.798 121.279 105.798 120.74C105.798 120.201 105.777 119.744 105.734 119.369C105.691 118.99 105.609 118.684 105.488 118.449C105.371 118.211 105.207 118.039 104.996 117.934C104.785 117.828 104.513 117.775 104.181 117.775C103.849 117.775 103.578 117.828 103.367 117.934C103.16 118.039 102.996 118.209 102.875 118.443C102.757 118.678 102.677 118.984 102.634 119.363C102.591 119.738 102.57 120.197 102.57 120.74C102.57 121.279 102.591 121.748 102.634 122.146C102.677 122.541 102.757 122.867 102.875 123.125C102.996 123.383 103.16 123.574 103.367 123.699C103.578 123.824 103.849 123.887 104.181 123.887ZM108.228 124.162C108.907 123.455 109.482 122.836 109.95 122.305C110.423 121.773 110.806 121.305 111.099 120.898C111.392 120.488 111.605 120.127 111.738 119.814C111.87 119.498 111.937 119.203 111.937 118.93C111.937 118.738 111.911 118.57 111.861 118.426C111.814 118.281 111.73 118.162 111.609 118.068C111.488 117.971 111.321 117.898 111.111 117.852C110.904 117.801 110.642 117.775 110.325 117.775C110.103 117.775 109.882 117.787 109.663 117.811C109.448 117.83 109.253 117.852 109.077 117.875C108.87 117.902 108.671 117.934 108.48 117.969V116.891C108.671 116.812 108.888 116.74 109.13 116.674C109.337 116.619 109.581 116.57 109.863 116.527C110.148 116.48 110.462 116.457 110.806 116.457C111.282 116.457 111.685 116.508 112.013 116.609C112.345 116.707 112.613 116.854 112.816 117.049C113.023 117.244 113.171 117.49 113.261 117.787C113.351 118.084 113.396 118.428 113.396 118.818C113.396 119.119 113.345 119.439 113.243 119.779C113.142 120.119 112.97 120.488 112.728 120.887C112.489 121.281 112.171 121.711 111.773 122.176C111.378 122.637 110.888 123.139 110.302 123.682V123.693H113.396V125H108.228V124.162ZM114.524 123.752C114.72 123.779 114.919 123.803 115.122 123.822C115.298 123.842 115.489 123.857 115.696 123.869C115.903 123.881 116.104 123.887 116.3 123.887C116.573 123.887 116.819 123.873 117.038 123.846C117.257 123.814 117.442 123.756 117.595 123.67C117.747 123.584 117.864 123.463 117.946 123.307C118.028 123.146 118.071 122.936 118.075 122.674C118.079 122.361 118.042 122.119 117.964 121.947C117.886 121.771 117.751 121.643 117.559 121.561C117.368 121.475 117.11 121.42 116.786 121.396C116.466 121.369 116.063 121.35 115.579 121.338L115.591 120.09C116.087 120.09 116.485 120.068 116.786 120.025C117.091 119.982 117.323 119.912 117.483 119.814C117.647 119.713 117.755 119.58 117.805 119.416C117.856 119.252 117.88 119.049 117.876 118.807C117.872 118.607 117.841 118.439 117.782 118.303C117.727 118.166 117.636 118.057 117.507 117.975C117.378 117.889 117.21 117.826 117.003 117.787C116.796 117.748 116.542 117.729 116.241 117.729C116.069 117.729 115.888 117.738 115.696 117.758C115.505 117.777 115.327 117.797 115.163 117.816C114.971 117.84 114.782 117.867 114.595 117.898V116.891C114.802 116.812 115.026 116.74 115.268 116.674C115.479 116.619 115.721 116.57 115.995 116.527C116.268 116.48 116.563 116.457 116.88 116.457C117.72 116.457 118.337 116.646 118.731 117.025C119.126 117.4 119.323 117.971 119.323 118.736C119.323 118.986 119.3 119.205 119.253 119.393C119.206 119.58 119.143 119.742 119.065 119.879C118.987 120.016 118.897 120.129 118.796 120.219C118.698 120.309 118.595 120.383 118.485 120.441C118.38 120.496 118.274 120.537 118.169 120.564C118.067 120.588 117.973 120.602 117.888 120.605V120.617C117.958 120.625 118.048 120.639 118.157 120.658C118.266 120.674 118.382 120.707 118.503 120.758C118.628 120.805 118.751 120.873 118.872 120.963C118.997 121.053 119.108 121.174 119.206 121.326C119.304 121.475 119.384 121.658 119.446 121.877C119.509 122.096 119.54 122.357 119.54 122.662C119.54 123.146 119.475 123.551 119.346 123.875C119.221 124.199 119.04 124.459 118.802 124.654C118.567 124.85 118.282 124.988 117.946 125.07C117.614 125.152 117.241 125.193 116.827 125.193C116.534 125.193 116.249 125.174 115.971 125.135C115.694 125.096 115.448 125.051 115.233 125C114.983 124.945 114.747 124.881 114.524 124.807V123.752Z" fill="white"/>
</g>
<defs>
<clipPath id="clip0_101_4">
<rect width="128" height="128" fill="white"/>
</clipPath>
</defs>
</svg>
