<?xml version="1.0" encoding="UTF-8" standalone="no"?>
<!-- Created with Inkscape (http://www.inkscape.org/) -->

<svg
   xmlns:dc="http://purl.org/dc/elements/1.1/"
   xmlns:cc="http://creativecommons.org/ns#"
   xmlns:rdf="http://www.w3.org/1999/02/22-rdf-syntax-ns#"
   xmlns:svg="http://www.w3.org/2000/svg"
   xmlns="http://www.w3.org/2000/svg"
   xmlns:sodipodi="http://sodipodi.sourceforge.net/DTD/sodipodi-0.dtd"
   xmlns:inkscape="http://www.inkscape.org/namespaces/inkscape"
   width="100px"
   height="100px"
   viewBox="0 0 100 100"
   version="1.1"
   id="SVGRoot"
   inkscape:version="0.92.5 (2060ec1f9f, 2020-04-08)"
   sodipodi:docname="logo3.svg">
  <defs
     id="defs2001" />
  <sodipodi:namedview
     id="base"
     pagecolor="#ffffff"
     bordercolor="#666666"
     borderopacity="1.0"
     inkscape:pageopacity="0.0"
     inkscape:pageshadow="2"
     inkscape:zoom="1.8101934"
     inkscape:cx="52.690212"
     inkscape:cy="39.216609"
     inkscape:document-units="px"
     inkscape:current-layer="layer1"
     showgrid="false"
     inkscape:window-width="739"
     inkscape:window-height="459"
     inkscape:window-x="496"
     inkscape:window-y="98"
     inkscape:window-maximized="0"
     inkscape:grid-bbox="true" />
  <metadata
     id="metadata2004">
    <rdf:RDF>
      <cc:Work
         rdf:about="">
        <dc:format>image/svg+xml</dc:format>
        <dc:type
           rdf:resource="http://purl.org/dc/dcmitype/StillImage" />
        <dc:title></dc:title>
      </cc:Work>
    </rdf:RDF>
  </metadata>
  <g
     inkscape:label="Layer 1"
     inkscape:groupmode="layer"
     id="layer1">
    <g
       id="g826"
       transform="matrix(0.33339258,0,0,0.42238135,-80.858567,-13.66204)">
      <path
         style="fill:#ffcc33;stroke-width:0.35277778"
         d="m 312.3099,32.687015 c 10e-6,0 -1e-5,-2.9e-5 0,-3e-5 z"
         id="path836"
         inkscape:connector-curvature="0"
         sodipodi:nodetypes="ccc" />
      <path
         style="fill:#ffcc33;stroke-width:0.35277778"
         d="m 289.30298,39.544256 c -10e-6,-10e-7 -2e-5,2e-6 -2e-5,-4e-6 z"
         id="path834"
         inkscape:connector-curvature="0"
         sodipodi:nodetypes="ccc" />
      <path
         style="fill:#ffcc33;stroke-width:0.35277778"
         d="m 270.45185,62.138201 c -0.26531,-1.636594 -2.31554,-21.486049 -2.31554,-22.41816 0,-0.742944 0.13839,-0.776981 3.15901,-0.776981 h 3.15902 l 0.17711,1.146528 c 0.0974,0.630591 0.35727,4.242153 0.57748,8.025695 0.2202,3.783542 0.47383,6.953945 0.56361,7.04534 0.27193,0.276809 0.59197,-0.425768 3.85824,-8.469896 l 3.14581,-7.747476 3.24721,-9.5e-5 3.2472,-9.6e-5 0.1797,1.146528 c 0.0988,0.630591 0.34622,3.607153 0.54976,6.614584 0.45465,6.717802 0.67935,8.529489 1.03097,8.312174 0.14964,-0.09248 1.67982,-3.746804 3.4004,-8.120717 l 3.12833,-7.952569 h 3.27529 3.27529 l -0.81255,1.852084 c -0.44691,1.018646 -2.84904,6.495521 -5.33807,12.170834 l -4.5255,10.31875 h -3.44886 -3.44885 l -0.24814,-2.38125 c -1.01414,-9.732372 -1.44252,-12.920169 -1.7488,-13.013691 -0.19375,-0.05916 -1.8604,3.37759 -3.70366,7.637228 l -3.35139,7.744796 -3.4236,0.0065 -3.4236,0.0065 z"
         id="path832"
         inkscape:connector-curvature="0" />
      <path
         style="fill:#ffcc33;stroke-width:0.35277778"
         d="m 255.43631,63.317366 c -3.09346,-0.649603 -4.58611,-2.275082 -4.58611,-4.994215 0,-1.188058 0.83563,-6.870153 1.92923,-13.118285 l 0.1698,-0.970139 h -3.71287 c -3.85316,0 -5.48193,-0.440512 -5.92813,-1.603305 -0.12053,-0.314087 -0.21914,-2.383709 -0.21914,-4.599159 v -4.028092 h 2.29305 2.29306 v 2.293056 2.293056 h 3.175 c 2.72923,0 3.175,-0.08262 3.175,-0.588464 0,-0.323656 0.17505,-1.593656 0.38899,-2.822223 l 0.38899,-2.233758 h 3.33895 c 3.0112,0 3.32183,0.0606 3.16456,0.617361 -0.0959,0.339549 -0.27696,1.331736 -0.40233,2.204861 -0.12536,0.873125 -0.3064,1.865313 -0.40232,2.204861 -0.15736,0.557097 0.15508,0.617362 3.20077,0.617362 h 3.37517 v 1.185484 c 0,0.652017 0.10095,1.922017 0.22434,2.822223 l 0.22434,1.636737 h -4.03206 -4.03205 l -0.99448,6.123454 c -0.54696,3.3679 -0.88666,6.463156 -0.75488,6.878347 0.25681,0.809163 1.54089,1.300274 2.64489,1.011572 0.85419,-0.223378 1.07545,0.342114 1.07545,2.748653 0,1.496047 -0.12807,1.923883 -0.61736,2.062296 -1.29934,0.367568 -4.19703,0.506703 -5.37986,0.258317 z m 56.44444,0.08337 c -3.08211,-0.54285 -4.71964,-1.913278 -5.07703,-4.248909 -0.12309,-0.804368 0.25956,-4.105028 0.9625,-8.302521 l 1.1668,-6.967361 h -3.08981 -3.08981 l 1.10438,-2.645834 1.10438,-2.645833 h 2.37719 c 2.62975,0 2.5358,0.08976 2.9539,-2.822223 0.42733,-2.976251 0.22139,-2.822222 3.77339,-2.822222 h 3.19668 l -0.24055,1.813353 c -0.13231,0.997345 -0.33135,2.267345 -0.44233,2.822223 l -0.20177,1.008869 h 5.66511 5.66511 l 0.0122,-0.89799 c -0.009,-0.923906 0.11491,-0.871456 3.33272,1.433315 1.85286,1.399698 2.49723,2.233794 2.84395,2.587345 -0.31539,0.212894 -1.58756,1.235311 -3.16186,2.14036 -3.07235,1.766266 -3.07964,1.759117 -3.06687,0.952896 l 0.0398,-0.924259 h -6.09574 -6.09573 l -0.9798,5.909028 c -0.53889,3.249965 -0.9801,6.293522 -0.98048,6.763461 -10e-4,1.170061 1.05796,1.883085 2.46875,1.66236 1.12438,-0.175914 1.14653,-0.153404 1.14653,1.165456 0,0.739659 0.096,1.82467 0.21326,2.411137 0.19197,0.959864 0.11274,1.08563 -0.79375,1.259936 -1.86948,0.359474 -3.82427,0.503624 -4.71118,0.347413 z"
         id="path828"
         inkscape:connector-curvature="0"
         sodipodi:nodetypes="ssccscscccccssccscccscscccccccscsscscccccssscccccccccsccccscssccs" />
    </g>
  </g>
</svg>
